<svg width="42" height="42" viewBox="0 0 42 42" fill="none" xmlns="http://www.w3.org/2000/svg">
<rect width="42" height="42" fill="black"/>
<g clip-path="url(#clip0_2240_1032)">
<path fill-rule="evenodd" clip-rule="evenodd" d="M21 6C12.7125 6 6 12.7125 6 21C6 27.6375 10.2937 33.2438 16.2562 35.2313C17.0062 35.3625 17.2875 34.9125 17.2875 34.5188C17.2875 34.1625 17.2688 32.9813 17.2688 31.725C13.5 32.4188 12.525 30.8062 12.225 29.9625C12.0562 29.5312 11.325 28.2 10.6875 27.8437C10.1625 27.5625 9.4125 26.8687 10.6688 26.85C11.85 26.8312 12.6938 27.9375 12.975 28.3875C14.325 30.6562 16.4813 30.0188 17.3438 29.625C17.475 28.65 17.8687 27.9937 18.3 27.6187C14.9625 27.2437 11.475 25.95 11.475 20.2125C11.475 18.5812 12.0563 17.2312 13.0125 16.1812C12.8625 15.8062 12.3375 14.2687 13.1625 12.2062C13.1625 12.2062 14.4188 11.8125 17.2875 13.7438C18.4875 13.4063 19.7625 13.2375 21.0375 13.2375C22.3125 13.2375 23.5875 13.4063 24.7875 13.7438C27.6563 11.7938 28.9125 12.2062 28.9125 12.2062C29.7375 14.2687 29.2125 15.8062 29.0625 16.1812C30.0188 17.2312 30.6 18.5625 30.6 20.2125C30.6 25.9687 27.0938 27.2437 23.7563 27.6187C24.3 28.0875 24.7688 28.9875 24.7688 30.3938C24.7688 32.4 24.75 34.0125 24.75 34.5188C24.75 34.9125 25.0313 35.3813 25.7813 35.2313C31.7063 33.2438 36 27.6187 36 21C36 12.7125 29.2875 6 21 6Z" fill="white"/>
</g>
<defs>
<clipPath id="clip0_2240_1032">
<rect width="30" height="30" fill="white" transform="translate(6 6)"/>
</clipPath>
</defs>
</svg>
