<svg width="42" height="42" viewBox="0 0 42 42" fill="none" xmlns="http://www.w3.org/2000/svg">
<rect width="42" height="42" fill="#FFE411"/>
<path fill-rule="evenodd" clip-rule="evenodd" d="M16.1665 33.619L13.0715 29.241C13.0419 29.1991 13.0209 29.1518 13.0096 29.1018C12.9983 29.0518 12.9969 29 13.0057 28.9495C13.0144 28.899 13.033 28.8507 13.0604 28.8073C13.0879 28.764 13.1236 28.7265 13.1655 28.697L15.2115 27.251C17.3285 25.754 18.5925 23.678 18.5925 20.721V7.39C18.5925 7.2866 18.6336 7.18736 18.7067 7.11422C18.7799 7.04109 18.8791 7 18.9825 7H24.4445V20.72C24.4445 26.103 22.9445 28.79 18.5315 31.947L16.1665 33.619Z" fill="#FEFEFE"/>
<mask id="mask0_2241_1058" style="mask-type:luminance" maskUnits="userSpaceOnUse" x="16" y="7" width="11" height="29">
<path d="M24.2839 7.00391V20.4939C24.2839 25.8779 22.7839 28.5639 18.3699 31.7209L16.0039 33.3909L17.1299 34.9839C17.1594 35.0258 17.1969 35.0615 17.2402 35.089C17.2836 35.1164 17.3319 35.135 17.3824 35.1437C17.4329 35.1525 17.4847 35.1511 17.5347 35.1398C17.5847 35.1286 17.632 35.1075 17.6739 35.0779L19.7309 33.6239C22.3479 31.7509 23.9879 30.0299 25.0459 28.0419C26.1369 25.9959 26.6229 23.6669 26.6229 20.4919V7.3939C26.6229 7.2905 26.5818 7.19128 26.5087 7.11814C26.4355 7.045 26.3363 7.00391 26.2329 7.00391H24.2839Z" fill="white"/>
</mask>
<g mask="url(#mask0_2241_1058)">
<path fill-rule="evenodd" clip-rule="evenodd" d="M24.2839 7.00391V20.4939C24.2839 25.8779 22.7839 28.5639 18.3699 31.7209L16.0039 33.3909L17.1299 34.9839C17.1594 35.0258 17.1969 35.0615 17.2402 35.089C17.2836 35.1164 17.3319 35.135 17.3824 35.1437C17.4329 35.1525 17.4847 35.1511 17.5347 35.1398C17.5847 35.1286 17.632 35.1075 17.6739 35.0779L19.7309 33.6239C22.3479 31.7509 23.9879 30.0299 25.0459 28.0419C26.1369 25.9959 26.6229 23.6669 26.6229 20.4919V7.3939C26.6229 7.2905 26.5818 7.19128 26.5087 7.11814C26.4355 7.045 26.3363 7.00391 26.2329 7.00391H24.2839Z" fill="url(#paint0_linear_2241_1058)"/>
</g>
<defs>
<linearGradient id="paint0_linear_2241_1058" x1="546.954" y1="7.00391" x2="546.954" y2="2821.55" gradientUnits="userSpaceOnUse">
<stop stop-color="#E9FFFF"/>
<stop offset="1" stop-color="#01B1E7"/>
</linearGradient>
</defs>
</svg>
