<svg width="42" height="42" viewBox="0 0 42 42" fill="none" xmlns="http://www.w3.org/2000/svg">
<rect width="42" height="42" fill="#FF2442"/>
<path fill-rule="evenodd" clip-rule="evenodd" d="M14.5296 11.1756H11.2942V15.7052H14.5296V19.5877H10V24.1173H14.5296V33.8236H19.0592V24.1173H26.8444C27.4429 24.1173 27.4713 24.1647 27.4713 24.7644V28.6469C27.4713 29.2466 27.4429 29.294 26.8444 29.294H22.2946C22.2946 31.7956 24.3428 33.8236 26.8444 33.8236C30.0596 33.8236 32.0009 32.5294 32.0009 29.294V24.7644C32.0009 21.529 29.4125 19.5877 26.1771 19.5877V16.3523C26.1771 12.9543 23.7447 11.1756 20.3533 11.1756H19.7063C19.3489 11.1756 19.0592 10.8859 19.0592 10.5285V9.23438H14.5296V11.1756ZM21.0004 19.5877C21.3578 19.5877 21.6475 19.298 21.6475 18.9406V16.3523C21.6475 15.7527 21.4347 15.7052 21.0004 15.7052H19.0592V18.9406C19.0592 19.298 19.3489 19.5877 19.7063 19.5877H21.0004Z" fill="white"/>
<path d="M32.0003 12.7921C32.0003 14.043 30.9863 15.0569 29.7355 15.0569C29.1018 15.0569 27.4707 15.0569 27.4707 15.0569C27.4707 15.0569 27.4707 13.4093 27.4707 12.7921C27.4707 11.5413 28.4847 10.5273 29.7355 10.5273C30.9863 10.5273 32.0003 11.5413 32.0003 12.7921Z" fill="white"/>
</svg>
